<?xml version="1.0" encoding="iso-8859-1"?>
<!-- Generator: Adobe Illustrator 21.1.0, SVG Export Plug-In . SVG Version: 6.00 Build 0)  -->
<svg version="1.1" id="Layer_1" xmlns="http://www.w3.org/2000/svg" xmlns:xlink="http://www.w3.org/1999/xlink" x="0px" y="0px"
	 viewBox="0 0 24 24" enable-background="new 0 0 24 24" xml:space="preserve">
<g>
	<path fill="#303C42" d="M20.9042969,13.2607422C20.96875,12.8198242,21,12.4052734,21,12s-0.03125-0.8198242-0.0957031-1.2607422
		L23.4301758,8.625c0.1865234-0.1557617,0.2338867-0.4228516,0.1123047-0.6333008l-2.2998047-3.9833984
		c-0.121582-0.2099609-0.3759766-0.3027344-0.6044922-0.2197266l-3.0893555,1.1289063
		c-0.6606445-0.5170898-1.3945313-0.9394531-2.1879883-1.2583008l-0.5683594-3.2456055
		C14.7504883,0.1743164,14.5424805,0,14.2998047,0H9.7001953C9.4575195,0,9.2495117,0.1743164,9.2075195,0.4135742
		L8.6391602,3.6591797c-0.793457,0.3188477-1.5273438,0.7412109-2.1879883,1.2583008L3.3618164,3.7885742
		C3.1347656,3.7041016,2.878418,3.7978516,2.7573242,4.0083008L0.4575195,7.9916992
		C0.3359375,8.2021484,0.3833008,8.4692383,0.5698242,8.625l2.5258789,2.1142578C3.03125,11.1801758,3,11.5947266,3,12
		s0.03125,0.8198242,0.0957031,1.2607422L0.5698242,15.375c-0.1865234,0.1557617-0.2338867,0.4228516-0.1123047,0.6333008
		l2.2998047,3.9833984c0.1220703,0.2104492,0.3789063,0.3032227,0.6044922,0.2197266l3.0893555-1.1289063
		c0.6606445,0.5170898,1.3945313,0.9394531,2.1879883,1.2583008l0.5683594,3.2456055
		C9.2495117,23.8256836,9.4575195,24,9.7001953,24h4.5996094c0.2426758,0,0.4506836-0.1743164,0.4926758-0.4135742
		l0.5683594-3.2456055c0.793457-0.3188477,1.5273438-0.7412109,2.1879883-1.2583008l3.0893555,1.1289063
		c0.2270508,0.081543,0.4829102-0.0092773,0.6044922-0.2197266l2.2998047-3.9833984
		c0.121582-0.2104492,0.0742188-0.4775391-0.1123047-0.6333008L20.9042969,13.2607422z M12,16c-2.2055664,0-4-1.7944336-4-4
		s1.7944336-4,4-4s4,1.7944336,4,4S14.2055664,16,12,16z"/>
	<path fill="#3D82C4" d="M19.8730469,13.3764648C19.9584961,12.8842773,20,12.434082,20,12
		s-0.0415039-0.8842773-0.1269531-1.3764648c-0.0302734-0.1757813,0.0351563-0.3544922,0.171875-0.46875l2.4213867-2.0268555
		l-1.8798828-3.2558594l-2.9609375,1.0820313c-0.1669922,0.0620117-0.3564453,0.0283203-0.4926758-0.0864258
		c-0.7016602-0.5883789-1.5048828-1.050293-2.3876953-1.3735352c-0.1674805-0.0615234-0.2900391-0.2075195-0.3208008-0.3833008
		L13.8798828,1h-3.7597656L9.5756836,4.1108398C9.5449219,4.2866211,9.4223633,4.4326172,9.2548828,4.4941406
		C8.3720703,4.8173828,7.5688477,5.2792969,6.8671875,5.8676758c-0.1367188,0.1147461-0.324707,0.1484375-0.4926758,0.0864258
		L3.4135742,4.8720703L1.5336914,8.1279297l2.4213867,2.0268555c0.1367188,0.1142578,0.2021484,0.2929688,0.171875,0.46875
		C4.0415039,11.1157227,4,11.565918,4,12s0.0415039,0.8842773,0.1269531,1.3764648
		c0.0302734,0.1757813-0.0351563,0.3544922-0.171875,0.46875l-2.4213867,2.0268555l1.8798828,3.2558594l2.9609375-1.0820313
		c0.1679688-0.0620117,0.355957-0.0283203,0.4926758,0.0864258c0.7016602,0.5883789,1.5048828,1.050293,2.3876953,1.3735352
		c0.1674805,0.0615234,0.2900391,0.2075195,0.3208008,0.3833008L10.1201172,23h3.7597656l0.5444336-3.1108398
		c0.0307617-0.1757813,0.1533203-0.3217773,0.3208008-0.3833008c0.8828125-0.3232422,1.6860352-0.7851563,2.3876953-1.3735352
		c0.1362305-0.1147461,0.3256836-0.1484375,0.4926758-0.0864258l2.9609375,1.0820313l1.8798828-3.2558594l-2.4213867-2.0268555
		C19.9082031,13.730957,19.8427734,13.5522461,19.8730469,13.3764648z M12,17c-2.7568359,0-5-2.2431641-5-5s2.2431641-5,5-5
		s5,2.2431641,5,5S14.7568359,17,12,17z"/>
	<path opacity="0.1" fill="#010101" d="M22.4663086,8.1279297l-1.8798828-3.2558594l-2.9609375,1.0820313
		c-0.1669922,0.0620117-0.3564453,0.0283203-0.4926758-0.0864258c-0.7016602-0.5883789-1.5048828-1.050293-2.3876953-1.3735352
		c-0.1674805-0.0615234-0.2900391-0.2075195-0.3208008-0.3833008L13.8798828,1H12v6c2.7568359,0,5,2.2431641,5,5s-2.2431641,5-5,5v6
		h1.8798828l0.5444336-3.1108398c0.0307617-0.1757813,0.1533203-0.3217773,0.3208008-0.3833008
		c0.8828125-0.3232422,1.6860352-0.7851563,2.3876953-1.3735352c0.1362305-0.1147461,0.3256836-0.1484375,0.4926758-0.0864258
		l2.9609375,1.0820313l1.8798828-3.2558594l-2.4213867-2.0268555c-0.1367188-0.1142578-0.2021484-0.2929688-0.171875-0.46875
		C19.9584961,12.8842773,20,12.434082,20,12s-0.0415039-0.8842773-0.1269531-1.3764648
		c-0.0302734-0.1757813,0.0351563-0.3544922,0.171875-0.46875L22.4663086,8.1279297z"/>
	<linearGradient id="SVGID_1_" gradientUnits="userSpaceOnUse" x1="0.9820563" y1="6.8622484" x2="23.0179443" y2="17.1377506">
		<stop  offset="0" style="stop-color:#FFFFFF;stop-opacity:0.2"/>
		<stop  offset="1" style="stop-color:#FFFFFF;stop-opacity:0"/>
	</linearGradient>
	<path fill="url(#SVGID_1_)" d="M20.9042969,13.2607422C20.96875,12.8198242,21,12.4052734,21,12
		s-0.03125-0.8198242-0.0957031-1.2607422L23.4301758,8.625c0.1865234-0.1557617,0.2338867-0.4228516,0.1123047-0.6333008
		l-2.2998047-3.9833984c-0.121582-0.2099609-0.3759766-0.3027344-0.6044922-0.2197266l-3.0893555,1.1289063
		c-0.6606445-0.5170898-1.3945313-0.9394531-2.1879883-1.2583008l-0.5683594-3.2456055
		C14.7504883,0.1743164,14.5424805,0,14.2998047,0H9.7001953C9.4575195,0,9.2495117,0.1743164,9.2075195,0.4135742
		L8.6391602,3.6591797c-0.793457,0.3188477-1.5273438,0.7412109-2.1879883,1.2583008L3.3618164,3.7885742
		C3.1347656,3.7041016,2.878418,3.7978516,2.7573242,4.0083008L0.4575195,7.9916992
		C0.3359375,8.2021484,0.3833008,8.4692383,0.5698242,8.625l2.5258789,2.1142578C3.03125,11.1801758,3,11.5947266,3,12
		s0.03125,0.8198242,0.0957031,1.2607422L0.5698242,15.375c-0.1865234,0.1557617-0.2338867,0.4228516-0.1123047,0.6333008
		l2.2998047,3.9833984c0.1220703,0.2104492,0.3789063,0.3032227,0.6044922,0.2197266l3.0893555-1.1289063
		c0.6606445,0.5170898,1.3945313,0.9394531,2.1879883,1.2583008l0.5683594,3.2456055
		C9.2495117,23.8256836,9.4575195,24,9.7001953,24h4.5996094c0.2426758,0,0.4506836-0.1743164,0.4926758-0.4135742
		l0.5683594-3.2456055c0.793457-0.3188477,1.5273438-0.7412109,2.1879883-1.2583008l3.0893555,1.1289063
		c0.2270508,0.081543,0.4829102-0.0092773,0.6044922-0.2197266l2.2998047-3.9833984
		c0.121582-0.2104492,0.0742188-0.4775391-0.1123047-0.6333008L20.9042969,13.2607422z M12,16c-2.2055664,0-4-1.7944336-4-4
		s1.7944336-4,4-4s4,1.7944336,4,4S14.2055664,16,12,16z"/>
</g>
<g>
</g>
<g>
</g>
<g>
</g>
<g>
</g>
<g>
</g>
<g>
</g>
<g>
</g>
<g>
</g>
<g>
</g>
<g>
</g>
<g>
</g>
<g>
</g>
<g>
</g>
<g>
</g>
<g>
</g>
</svg>
