<?xml version="1.0" encoding="iso-8859-1"?>
<!-- Generator: Adobe Illustrator 19.0.0, SVG Export Plug-In . SVG Version: 6.00 Build 0)  -->
<svg version="1.1" id="Capa_1" xmlns="http://www.w3.org/2000/svg" xmlns:xlink="http://www.w3.org/1999/xlink" x="0px" y="0px"
	 viewBox="0 0 512 512" style="enable-background:new 0 0 512 512;" xml:space="preserve">
<linearGradient id="SVGID_1_" gradientUnits="userSpaceOnUse" x1="-43.4101" y1="625.7774" x2="-25.9961" y2="643.1914" gradientTransform="matrix(21.3333 0 0 -21.3333 996.3334 13791.667)">
	<stop  offset="0" style="stop-color:#34CDFA"/>
	<stop  offset="1" style="stop-color:#E8D9F1"/>
</linearGradient>
<path style="fill:url(#SVGID_1_);" d="M490.667,128H384V21.333C384,8.533,375.467,0,362.667,0H149.333
	C136.533,0,128,8.533,128,21.333V128H21.333C8.533,128,0,136.533,0,149.333v213.333C0,375.467,8.533,384,21.333,384H128v106.667
	c0,12.8,8.533,21.333,21.333,21.333h213.333c12.8,0,21.333-8.533,21.333-21.333V384h106.667c12.8,0,21.333-8.533,21.333-21.333
	V149.333C512,136.533,503.467,128,490.667,128z"/>
<path style="fill:#FFFFFF;" d="M213.333,362.667c-8.533,0-17.067-6.4-19.2-14.933l-32-93.867l-19.2,19.2
	c-4.267,4.267-8.533,4.267-14.933,4.267H0v-42.667h119.467l36.267-36.267c10.667-12.8,32-6.4,36.267,8.533l21.333,66.133
	l44.8-132.267c4.267-19.2,34.133-21.333,40.533-2.133l36.267,96H512v42.667H320c-8.533,0-14.933-4.267-19.2-12.8L279.467,211.2
	l-44.8,136.533C232.533,356.267,224,362.667,213.333,362.667z"/>
<g>
</g>
<g>
</g>
<g>
</g>
<g>
</g>
<g>
</g>
<g>
</g>
<g>
</g>
<g>
</g>
<g>
</g>
<g>
</g>
<g>
</g>
<g>
</g>
<g>
</g>
<g>
</g>
<g>
</g>
</svg>
